#define 2684d77794c94399e53da1d86b0896344Xz1MtHTxRDlcYeO_width 16
#define 2684d77794c94399e53da1d86b0896344Xz1MtHTxRDlcYeO_height 16
static char 2684d77794c94399e53da1d86b0896344Xz1MtHTxRDlcYeO_bits[] = {
  0x00, 0x00, 0x00, 0x00, 0x00, 0x00, 0xF8, 0x1F, 0xF0, 0x1F, 0xE0, 0x1F, 
  0xC0, 0x1F, 0x80, 0x1F, 0x00, 0x1F, 0x00, 0x1E, 0x00, 0x1C, 0x00, 0x18, 
  0x00, 0x10, 0x00, 0x00, 0x00, 0x00, 0x00, 0x00, };
