#define iconify_width 8
#define iconify_height 8
static char iconify_bits[] = {
  0x00, 0x00, 0x00, 0x00, 0x00, 0xE0, 0xE0, 0xE0, };
