#define max_width 8
#define max_height 8
static char max_bits[] = {
  0xE7, 0xE7, 0xE7, 0x00, 0x00, 0xE0, 0xE0, 0xE0, };
