#define fa6b1e0a07b348d7aeccc60a053d240ednE3y6zpZW0v8HVm_width 16
#define fa6b1e0a07b348d7aeccc60a053d240ednE3y6zpZW0v8HVm_height 16
static char fa6b1e0a07b348d7aeccc60a053d240ednE3y6zpZW0v8HVm_bits[] = {
  0x00, 0x00, 0x00, 0x00, 0x00, 0x00, 0x08, 0x10, 0x10, 0x08, 0x20, 0x04, 
  0x40, 0x02, 0x80, 0x01, 0x80, 0x01, 0x40, 0x02, 0x20, 0x04, 0x10, 0x08, 
  0x08, 0x10, 0x00, 0x00, 0x00, 0x00, 0x00, 0x00, };
