#define edc75753861f4cc9fbd6eff730591a18xEJE8IqNc2WX175Z_width 14
#define edc75753861f4cc9fbd6eff730591a18xEJE8IqNc2WX175Z_height 14
static char edc75753861f4cc9fbd6eff730591a18xEJE8IqNc2WX175Z_bits[] = {
  0x00, 0x00, 0x00, 0x00, 0x00, 0x00, 0xC0, 0x07, 0xF8, 0x07, 0x08, 0x06, 
  0x08, 0x06, 0x08, 0x06, 0x08, 0x02, 0x08, 0x02, 0xF8, 0x03, 0x00, 0x00, 
  0x00, 0x00, 0x00, 0x00, };
