#define e2222b5d3f4b481fd2ab427726fda6d5peDFtyqDiH8pLisl_width 14
#define e2222b5d3f4b481fd2ab427726fda6d5peDFtyqDiH8pLisl_height 14
static char e2222b5d3f4b481fd2ab427726fda6d5peDFtyqDiH8pLisl_bits[] = {
  0x00, 0x00, 0x00, 0x00, 0x00, 0x00, 0x00, 0x00, 0x00, 0x00, 0xC0, 0x00, 
  0x20, 0x01, 0x10, 0x02, 0x08, 0x04, 0x00, 0x00, 0x00, 0x00, 0x00, 0x00, 
  0x00, 0x00, 0x00, 0x00, };
