#define 31b610120b4247a1a599b33cb54e1c01w5lplMigFKGRGvr5_width 16
#define 31b610120b4247a1a599b33cb54e1c01w5lplMigFKGRGvr5_height 16
static char 31b610120b4247a1a599b33cb54e1c01w5lplMigFKGRGvr5_bits[] = {
  0x00, 0x00, 0x00, 0x00, 0x00, 0x00, 0x00, 0x02, 0x00, 0x06, 0x00, 0x0E, 
  0x00, 0x1E, 0x00, 0x00, 0x00, 0x00, 0x78, 0x00, 0x70, 0x00, 0x60, 0x00, 
  0x40, 0x00, 0x00, 0x00, 0x00, 0x00, 0x00, 0x00, };
