#define 65621503b6604b9ba5917169cf7755e2Wh6Mt3FL7JNBaAiJ_width 14
#define 65621503b6604b9ba5917169cf7755e2Wh6Mt3FL7JNBaAiJ_height 14
static char 65621503b6604b9ba5917169cf7755e2Wh6Mt3FL7JNBaAiJ_bits[] = {
  0x00, 0x00, 0x00, 0x00, 0x00, 0x00, 0x00, 0x00, 0x00, 0x00, 0x08, 0x04, 
  0x10, 0x02, 0x20, 0x01, 0xC0, 0x00, 0x00, 0x00, 0x00, 0x00, 0x00, 0x00, 
  0x00, 0x00, 0x00, 0x00, };
