#define close_width 8
#define close_height 8
static char close_bits[] = {
  0xE7, 0xE7, 0xE7, 0x00, 0x00, 0xE7, 0xE7, 0xE7, };
