#define 49b9c04684834db0e02406655a92ad4cgRdRln3ldFR8RWX8_width 16
#define 49b9c04684834db0e02406655a92ad4cgRdRln3ldFR8RWX8_height 16
static char 49b9c04684834db0e02406655a92ad4cgRdRln3ldFR8RWX8_bits[] = {
  0x00, 0x00, 0x00, 0x00, 0x00, 0x00, 0x00, 0x00, 0x00, 0x00, 0x00, 0x00, 
  0x00, 0x00, 0xF8, 0x1F, 0xF8, 0x1F, 0x00, 0x00, 0x00, 0x00, 0x00, 0x00, 
  0x00, 0x00, 0x00, 0x00, 0x00, 0x00, 0x00, 0x00, };
