#define 8be09b3928694246bf973f758b58bc2becMQwWR25W9rwrcj_width 16
#define 8be09b3928694246bf973f758b58bc2becMQwWR25W9rwrcj_height 16
static char 8be09b3928694246bf973f758b58bc2becMQwWR25W9rwrcj_bits[] = {
  0x00, 0x00, 0x00, 0x00, 0x00, 0x00, 0x00, 0x1E, 0x00, 0x1C, 0x00, 0x18, 
  0x00, 0x10, 0x00, 0x00, 0x00, 0x00, 0x08, 0x00, 0x18, 0x00, 0x38, 0x00, 
  0x78, 0x00, 0x00, 0x00, 0x00, 0x00, 0x00, 0x00, };
