#define 91313a61361c43f5b6b06f40de8221cepnyq2DjaVDaUF0ys_width 8
#define 91313a61361c43f5b6b06f40de8221cepnyq2DjaVDaUF0ys_height 8
static char 91313a61361c43f5b6b06f40de8221cepnyq2DjaVDaUF0ys_bits[] = {
  0xF8, 0xC0, 0xA0, 0x90, 0x88, 0x04, 0x02, 0x01, };
