#define 3f797f3cadcb4d46b08331b18ac147b6pYEI2WXf58CcTvcC_width 8
#define 3f797f3cadcb4d46b08331b18ac147b6pYEI2WXf58CcTvcC_height 8
static char 3f797f3cadcb4d46b08331b18ac147b6pYEI2WXf58CcTvcC_bits[] = {
  0x80, 0x40, 0x20, 0x11, 0x09, 0x05, 0x03, 0x1F, };
