#define 305075bad8cf4873b8c8d2e149511456crXw5Rhg5bRNn9fO_width 16
#define 305075bad8cf4873b8c8d2e149511456crXw5Rhg5bRNn9fO_height 16
static char 305075bad8cf4873b8c8d2e149511456crXw5Rhg5bRNn9fO_bits[] = {
  0x00, 0x00, 0x00, 0x00, 0x3C, 0x3C, 0x3C, 0x3C, 0x3C, 0x3C, 0x3C, 0x3C, 
  0x00, 0x00, 0x00, 0x00, 0x00, 0x00, 0x00, 0x00, 0x3C, 0x3C, 0x3C, 0x3C, 
  0x3C, 0x3C, 0x3C, 0x3C, 0x00, 0x00, 0x00, 0x00, };
