#define aa68b01bd535441bd517f1d17d07d8ef3UAcTewnsVsMFV2K_width 16
#define aa68b01bd535441bd517f1d17d07d8ef3UAcTewnsVsMFV2K_height 16
static char aa68b01bd535441bd517f1d17d07d8ef3UAcTewnsVsMFV2K_bits[] = {
  0x00, 0x00, 0x00, 0x00, 0x00, 0x00, 0x00, 0x00, 0x00, 0x00, 0x00, 0x00, 
  0x00, 0x00, 0x00, 0x00, 0x00, 0x00, 0x00, 0x00, 0xC0, 0x03, 0xC0, 0x03, 
  0xC0, 0x03, 0xC0, 0x03, 0x00, 0x00, 0x00, 0x00, };
