#define close_width 16
#define close_height 16
static char close_bits[] = {
  0x00, 0x00, 0x00, 0x00, 0x3C, 0x3C, 0x3C, 0x3C, 0x3C, 0x3C, 0x3C, 0x3C, 
  0x00, 0x00, 0x00, 0x00, 0x00, 0x00, 0x00, 0x00, 0x3C, 0x3C, 0x3C, 0x3C, 
  0x3C, 0x3C, 0x3C, 0x3C, 0x00, 0x00, 0x00, 0x00, };
