#define 54232c46fb09495c9155e9dae04436aaxWveYM4u5nMfYfao_width 16
#define 54232c46fb09495c9155e9dae04436aaxWveYM4u5nMfYfao_height 16
static char 54232c46fb09495c9155e9dae04436aaxWveYM4u5nMfYfao_bits[] = {
  0x00, 0x00, 0x00, 0x00, 0x3C, 0x3C, 0x3C, 0x3C, 0x3C, 0x3C, 0x3C, 0x3C, 
  0x00, 0x00, 0x00, 0x00, 0x00, 0x00, 0x00, 0x00, 0x00, 0x3C, 0x00, 0x3C, 
  0x00, 0x3C, 0x00, 0x3C, 0x00, 0x00, 0x00, 0x00, };
