#define 6e5381eeac3e402fe09f4ea3ce5830f3JkV17tHoyPLTiCfX_width 14
#define 6e5381eeac3e402fe09f4ea3ce5830f3JkV17tHoyPLTiCfX_height 14
static char 6e5381eeac3e402fe09f4ea3ce5830f3JkV17tHoyPLTiCfX_bits[] = {
  0x00, 0x00, 0x00, 0x00, 0x00, 0x00, 0x00, 0x00, 0x00, 0x00, 0x00, 0x00, 
  0x00, 0x00, 0x00, 0x00, 0x00, 0x00, 0x00, 0x00, 0xF8, 0x07, 0x00, 0x00, 
  0x00, 0x00, 0x00, 0x00, };
